<svg version="1" xmlns="http://www.w3.org/2000/svg" width="1365.333" height="1365.333" viewBox="0 0 1024.000000 1024.000000"><path d="M486 42.3c-.3.3-5.8.8-12.3 1.1-6.5.4-12.3.9-13 1.1-.7.2-3.7.6-6.7 1-61.4 6.7-133 31.6-186.5 64.8-12.7 7.9-25 16.1-25.3 16.9-.2.5-1 .8-1.7.8s-1.5.3-1.7.7c-.1.5-4.6 4-9.9 7.9-26.1 19.5-52.8 44.6-74.9 70.4-1.2 1.4-2.9 3.4-3.8 4.5-1 1.1-5 6.3-9 11.5s-8 10.3-8.8 11.3c-4.5 5.5-26.4 39.5-28.5 44.1-.5 1.2-2.2 4.3-3.9 7.1-2.8 4.9-13.6 26.4-17.7 35.5-4.5 9.9-13.4 32.8-16.7 43-10.6 32.7-16.3 59.2-21.1 97-2.1 16.7-2.8 70-1.3 88 1.4 15.5 3.1 30 4.3 36.1.3 1.3.8 4.4 1.1 6.9.3 2.5.8 4.7.9 5 .2.3.6 2.5 1 5s.8 4.7 1 5.1c.2.3.7 2.1 1 4 3.8 22.4 18.2 66.7 30.1 92.8 7.1 15.4 18.4 37.3 23.9 46.2.5.9 1.9 3.2 2.9 5 1.9 3.4 15.2 23.6 19.7 29.9 22.9 32.2 54.3 65.8 83.7 89.7 3.7 3 7.6 6.2 8.7 7.1 7.6 6.3 35.1 25.4 46 31.9 17.1 10.2 42.9 23.6 57.5 29.8 3.6 1.5 7.9 3.3 9.5 4.1 6.3 2.7 27 10 38.5 13.5 32.4 10.1 69.1 17.1 102 19.7 20.1 1.5 71 .8 88-1.3 40.8-5.1 69.8-11.7 107-24.7 10.8-3.8 27.3-10.3 29.5-11.6.6-.4 1.5-.7 2.2-.8 1.4-.2 35.2-17.1 40.3-20.2 1.9-1.1 6.2-3.6 9.5-5.5s10-6.1 14.9-9.3c4.9-3.2 9.6-6.4 10.5-6.9 5.4-3.4 29.4-21.6 37.7-28.6 22.6-19 44.2-40.9 62.2-63.2 4-5.1 8.2-10.2 9.3-11.5 1-1.2 1.9-2.6 1.9-3.1s.4-1.1.8-1.3c2.6-1 26.2-37.5 35.9-55.3 6.3-11.7 16-31.7 20-41.5 1.9-4.7 4-9.9 4.8-11.5 9.4-21.3 23.1-71.9 27-99.5.3-2.5.8-5.6 1-7 3.2-20.9 4-34.1 4-66 0-28.9-.5-39.5-3-58.8-1.4-10.3-4.5-29.1-6-36.2-.3-1.4-1-4.6-1.5-7.3-1.2-6-5.3-21.7-8.6-32.7-25.7-85.8-76.1-163.4-143.9-221.5-3.8-3.3-7.2-6.3-7.5-6.6-1.5-1.7-27-20.6-36-26.6-17.1-11.4-21.3-14-38.5-23.5-42-23.1-97.2-42.4-142.5-49.7-3.6-.6-7.5-1.3-8.6-1.5-3.8-.8-8.7-1.4-18.4-2.5-5.2-.6-11.3-1.3-13.5-1.6-5.2-.7-66.9-1.8-67.5-1.2zm83 32.6c24.2 3.3 59.7 10.4 65.5 13.1 1.1.5 10.6 3.7 21 7.1 10.5 3.4 22.2 7.6 26 9.4 3.9 1.8 13.3 6.1 21 9.5 7.7 3.4 14.2 6.5 14.5 6.9.3.4 5.5 3.4 11.5 6.6 23.7 12.6 66.1 43.2 82.5 59.5 1.4 1.4 5.7 5.5 9.5 9.1 17.7 16.9 38 40.4 48.9 56.6 1.6 2.4 3.3 4.3 3.9 4.3.6 0 .7.3.4.6-.3.4.9 2.5 2.8 4.7s3.5 4.4 3.5 4.9c0 .4 3.1 5.4 6.8 11.1 3.7 5.6 9.2 15 12.2 20.7 2.9 5.8 5.6 10.7 6 11 .9.6 5.6 10.8 11.2 24 2.2 5.2 4.4 10 4.8 10.5 1.3 1.5 5.6 13.9 10.6 30 2.4 7.7 4.8 14.9 5.4 16 2.3 4.7 8.6 34.1 11.5 54 6.1 41.6 6.1 94.4 0 136-2.9 19.9-9.2 49.3-11.5 54-.6 1.1-3 8.3-5.4 16-5 16.1-9.3 28.5-10.6 30-.4.5-2.6 5.3-4.8 10.5-5.6 13.2-10.3 23.4-11.2 24-.4.3-3.1 5.2-6 11-3 5.7-8.5 15.1-12.2 20.7-3.7 5.7-6.8 10.7-6.8 11.1 0 .5-1.6 2.7-3.5 4.9s-3.1 4.3-2.8 4.7c.3.3.2.6-.4.6-.6 0-2.3 1.9-3.9 4.3-10.9 16.2-31.2 39.7-48.9 56.6-3.8 3.6-8.1 7.7-9.5 9.1-16.4 16.3-58.8 46.9-82.5 59.5-6 3.2-11.2 6.2-11.5 6.6-.3.4-6.8 3.5-14.5 6.9-7.7 3.4-17.1 7.7-21 9.5-3.8 1.8-15.5 6-26 9.4-10.4 3.4-19.9 6.6-21 7.1-5.8 2.8-41.2 9.8-66 13.2-15.3 2-20.9 2.3-56 2.3s-40.7-.3-56-2.3c-24.8-3.4-60.2-10.4-66-13.2-1.1-.5-10.5-3.7-21-7.1-10.4-3.4-22.1-7.6-26-9.4-3.8-1.8-13.3-6.1-21-9.5-7.7-3.4-14.2-6.5-14.5-6.9-.3-.4-5.4-3.4-11.5-6.6-23.7-12.6-66.1-43.2-82.5-59.5-1.4-1.4-5.7-5.5-9.5-9.1-17.7-16.9-38-40.4-48.9-56.7-1.6-2.3-3.3-4.2-3.9-4.2-.6 0-.7-.3-.4-.6.3-.4-.9-2.5-2.8-4.7s-3.5-4.4-3.5-4.9c0-.4-3.1-5.4-6.8-11.1-3.7-5.6-9.2-15-12.2-20.7-2.9-5.8-5.6-10.7-6-11-.9-.6-5.6-10.8-11.2-24-2.2-5.2-4.4-10-4.8-10.5-1.3-1.5-5.6-13.9-10.6-30-2.4-7.7-4.8-14.9-5.4-16-2.3-4.7-8.6-34.1-11.5-54-6.1-41.6-6.1-94.4 0-136 2.9-19.9 9.2-49.3 11.5-54 .6-1.1 3-8.3 5.4-16 5-16.1 9.3-28.5 10.6-30 .4-.5 2.6-5.3 4.8-10.5 5.6-13.2 10.3-23.4 11.2-24 .4-.3 3.1-5.2 6-11 3-5.7 8.5-15.1 12.2-20.7 3.7-5.7 6.8-10.7 6.8-11.1 0-.5 1.6-2.7 3.5-4.9s3.1-4.3 2.8-4.7c-.3-.3-.2-.6.4-.6.6 0 2.3-1.9 3.9-4.3 10.9-16.2 31.2-39.7 48.9-56.6 3.8-3.6 8.1-7.7 9.5-9.1 16.4-16.3 58.8-46.9 82.5-59.5 6.1-3.2 11.2-6.2 11.5-6.6.3-.4 6.8-3.5 14.5-6.9 7.7-3.4 17.2-7.7 21-9.5 3.9-1.8 15.6-6 26-9.4 10.5-3.4 19.9-6.6 21-7.1 6.1-2.9 42.6-10.1 65.5-12.9 23.7-2.9 22.2-2.9 61-2.6 30.1.2 38 .5 52 2.4z"/><path d="M477.5 102.1c-3.8.4-9.5 1-12.5 1.3-3 .3-6.6.8-8 1-1.4.3-6.1 1-10.5 1.6-4.4.6-9.6 1.6-11.6 2.1-1.9.5-5.1 1.1-7 1.3-1.9.3-3.4.5-3.4.6 0 .1-.7.3-1.5.5s-4.4 1-8 1.9c-3.6.9-7.7 1.9-9.2 2.2-4.7.9-37.9 12-46.8 15.6-21.8 8.9-41.8 19-62.5 31.6-7.7 4.7-14.2 8.8-14.5 9.2-.3.3-2.7 2.1-5.5 4-5 3.4-19.2 14-23 17.1-1.1 1-5.1 4.3-9 7.6-12.1 10.1-38.6 36.9-49.2 49.9-13.1 16-31.3 42-37.4 53.4-1.3 2.5-2.6 4.7-2.9 5-3 3-20.7 40.1-26.1 54.5-1.2 3.3-2.6 7.1-3.2 8.5-.6 1.4-1.1 2.7-1.2 3-.1.3-1.6 5-3.4 10.4-3.3 10.1-8.9 30.1-9.7 34.6-.3 1.4-.9 4.1-1.4 6-.5 1.9-1.1 5.1-1.4 7-.3 1.9-1.2 6.9-2 11s-1.7 10.4-2.1 14c-.4 3.6-.9 7.3-1.1 8.4-2.5 13.4-2.5 80.9 0 94.3.3 1.1.7 4.4 1.1 7.4.3 3 .8 6.5 1 7.9.3 1.4.7 3.8 1 5.5.3 1.6.7 4.1 1 5.5 2.7 13.7 4 19.6 5.7 26 1 4.1 2.1 8.2 2.3 9 .2.8.4 1.5.5 1.5.1 0 .3 1 .6 2.2.9 5 7.9 25.6 13.4 39.3 17 42.5 41.1 82.5 70.8 117 8.2 9.6 36.4 37.3 46.2 45.5 56.2 46.7 120.8 77.2 190.6 89.9 17.5 3.1 17.9 3.2 42.4 5.6 9.2.9 65.4.7 69.5-.3 1.1-.3 5.2-.8 9-1.1 53.6-5.2 117.5-26.9 165.7-56.4 3.5-2.1 7.4-4.5 8.7-5.3 1.4-.8 3-1.7 3.5-2.2.6-.4 6.1-4.2 12.1-8.4 9.4-6.6 22.5-16.5 26.1-19.8.6-.6 3-2.6 5.5-4.5 6-4.8 34.2-32.9 41.9-41.8 13.6-15.5 30.6-39 42.7-58.7 14-22.7 29.3-56.4 38.1-83.5 8.8-27.5 13.1-46.5 17.8-80 2.6-19.2 2.6-75.5-.1-96.5-.3-1.7-.7-5.5-1.1-8.5-.3-3-.7-5.7-.9-6-.2-.3-.6-2.6-1-5-1.2-9-5.8-29.1-10.4-46.5-1.9-7-8.4-25.9-11.2-32.7-1.7-4-3.2-8-3.4-8.8-.9-4-14.2-31.5-21.5-44.5-11.6-20.7-30.2-48.1-38.5-57.1-.5-.6-2.3-2.8-4-4.8-6.6-8.4-9.6-11.6-24-26.1-15.6-15.7-25.6-25-30.9-28.7-1.7-1.2-3.5-2.8-4.1-3.4-2.5-2.9-36.5-26.9-44-31-5-2.7-10.1-5.7-11-6.4-3.2-2.4-29.3-15.2-44-21.5-8.1-3.5-25.2-9.7-35.5-12.9-13.1-4-34.8-9.8-37-9.8-.8-.1-5.3-.9-10-1.9-4.7-1-10.7-2.1-13.5-2.4-2.7-.4-6.1-.8-7.5-1.1-1.4-.2-4.7-.6-7.5-.9-2.7-.3-6.6-.8-8.5-1.1-5.9-.9-66-1.2-73.5-.3zm47.3 198.6c5.7 3.2 8.3 6.3 10.4 12.1 3.2 8.9.8 21.2-5.6 29.1-3.8 4.8-19 6.9-26 3.6-10.6-5.1-15.6-16.1-12.6-28.3 1.6-7 6.5-12.3 15.3-16.7 8.2-4.1 11.2-4.1 18.5.2zm79 77c2.9 2.1 5 7.2 5.1 12.1.1 5.2-3 10-12.5 19.2-4.9 4.7-11.2 10.8-14.2 13.7l-5.4 5.2.7 9.3c1.2 18.3 3.8 31.1 10.7 53.2 3.1 10.1 10.5 30.6 11.3 31.4 1 1 15.7-10 23.1-17.3 13.1-13.1 26.5-31.1 43.7-59.1 9.5-15.3 13.8-18.4 18.7-13.2 4.1 4.4 2.7 7.3-21.5 44.2-5.5 8.4-12.2 17.9-14.9 21.2-8.8 10.6-27.9 28.8-36.1 34.3-4.4 3-8.1 5.5-8.3 5.6-.1.1.9 4.2 2.3 9.1 3.9 13.3 3.9 27.5 0 36.8-8.1 19.3-28.9 34.9-53.5 40.1-10.3 2.2-24.7 2.9-33 1.6-23-3.5-38.1-21-31.6-36.5 3.3-7.9 14.7-15.4 59.1-39.1 14.6-7.8 26.9-14.7 28.1-15.6.8-.7.4-2.8-1.3-7.7-6.4-17.3-17.2-49.6-19.3-57.4l-2.3-8.6-4 5.1c-10.3 13.2-23.4 26.9-62.3 64.9-10.8 10.7-11 10.9-12.8 18-10.1 40.1-18.9 70.9-22.6 79.3-.5 1.1-2.7 6.5-5 12-15.2 36.4-37.5 65.3-58.3 75.4-9.4 4.6-17.8 6.5-29.2 6.5-12.4 0-15.7-1.4-18.8-8.2-4.6-10.3-2.4-27.6 5.8-44.9 11.2-23.7 28.6-45.5 73.4-92.2l18.6-19.3 4.2-18.2c2.4-9.9 5.2-22.3 6.4-27.5 1.1-5.1 2.2-10.1 2.4-11 13.7-61 18.3-90.2 15.7-99.5-.7-2.2-.9-4.2-.6-4.5.3-.3 4.4 1.4 9.2 3.9 6.1 3.1 10.7 6.3 15.4 11 7.6 7.6 9.4 12.1 8.4 21-.6 5.1-6.7 32.2-14.9 66.8-2.8 11.5-3.1 14-1.8 13 2.4-1.9 18-16.7 32.6-31.1 14.4-14 24-25.5 30.8-36.4 3.8-6.2 4.5-8.2 5-14.5 2.2-25.8 18-49.3 36.2-54.2 4.2-1.1 14.7.2 17.3 2.1z"/><path d="M564 559.6c-30.7 13.8-56.5 27.1-59.4 30.4-4.8 5.8-2.5 12.2 5.5 15.4 9.9 4 32.1.5 48.6-7.6 9.9-4.8 21.4-15.2 24.9-22.3 3.6-7.5 2.3-23.7-2-23.4-.6 0-8.5 3.4-17.6 7.5zM424.9 591.3c-2.4 2.4-8.9 9.3-14.5 15.3-43.9 47.6-58.4 71-58 93.9l.1 6 4.8.3c18.9 1.2 41.9-28.8 59.8-78 3.7-10.3 13.2-41.8 12.5-41.8-.1 0-2.2 2-4.7 4.3z"/></svg>